<svg width="12" height="20" viewBox="0 0 12 20" fill="none" xmlns="http://www.w3.org/2000/svg">
<path d="M3.5502 10.0001L10.9002 17.3501C11.1502 17.6001 11.271 17.8918 11.2627 18.2251C11.2544 18.5584 11.1252 18.8501 10.8752 19.1001C10.6252 19.3501 10.3335 19.4751 10.0002 19.4751C9.66686 19.4751 9.3752 19.3501 9.1252 19.1001L1.4252 11.4251C1.2252 11.2251 1.0752 11.0001 0.975195 10.7501C0.875195 10.5001 0.825195 10.2501 0.825195 10.0001C0.825195 9.75011 0.875195 9.50011 0.975195 9.25011C1.0752 9.00011 1.2252 8.77511 1.4252 8.57511L9.1252 0.87511C9.3752 0.62511 9.67103 0.504277 10.0127 0.51261C10.3544 0.520944 10.6502 0.65011 10.9002 0.90011C11.1502 1.15011 11.2752 1.44178 11.2752 1.77511C11.2752 2.10844 11.1502 2.40011 10.9002 2.65011L3.5502 10.0001Z" fill="white"/>
</svg>
